<svg version="1.1" viewBox="0 0 5400 5400" xmlns="http://www.w3.org/2000/svg">
<g transform="translate(-2100 0)">
<path d="m4635.6 1124.9-110 320.88-141.64 261.18-290.05 337.1 0.9942 1.8653 780.03-93.69 257.48-131.22z" fill="#5a0000" fill_rule="evenodd"/>
<path d="m3251 2399.6-124.48 719.87 1.7304 1.1484 834.34-535.6-0.33-2.0527z" fill="#5a0000" fill_rule="evenodd"/>
<path d="m5493 66.896-775.17 554.4 261 430.75-344.88 74.576 495.94 694.88 243.01 115.9 235.92 106.95 1.4981-1.5078-438.95-953.4-189.04-37.449 512.34-983.65z" fill="#850000" fill_rule="evenodd"/>
<path d="m4340.4 1123.6-610.7 161.6-622.15 1080.6 144.11 36.406 707.55 182.41-832.7 534.54 24.228 707.73 1299.5-379.53-486.61-862.59 868.42-318.55-0.066-2.1504-735.24-219.79 289.29-336.22z" fill="#850000" fill_rule="evenodd"/>
<path d="m6093.6 2322.6-70.908 98.742 221.39 130.74 89.283-200.92z" fill_rule="evenodd"/>
<path d="m4534.2 252.37-804.7 1033.1 1.1855 1.7929 607.61-160.79 45.416 581.24 2.127 0.4531 141.79-261.45 109.86-320.46-296.75-2.3515 195.47-870.57z" fill="#b00000" fill_rule="evenodd"/>
<path d="m4833.4 2263.2-873.11 320.28 486.52 862.43-1297 378.78 569.56 741.94 730.04-1119.4-0.1778-0.2383 0.3067-0.031z" fill="#b00000" fill_rule="evenodd"/>
<path d="m5171.2 1089.5-1.6329 1.4336 438.16 951.68-776.41 221.41 0.1641 2.2148 1193.4 156.02 70.92-98.76-485.24-280.75 40.244-271.17-223.66-520.96z" fill="#b00000" fill_rule="evenodd"/>
<path d="m5130.7 1819.3-258.36 131.67 240.28 158.67 263.13-173.46z" fill="#240000" fill_rule="evenodd"/>
<path d="m4448.8 3445.5-1.1562 1.8262 960.06 1139.8 200.7-836.46z" fill="#efefef" fill_rule="evenodd"/>
<path d="m4831.3 2262.5-383.83 1183.8 1.9141 1.1153 587.25-641.3-4.0957-241.51z" fill="#efefef" fill_rule="evenodd"/>
<path d="m5492.7 67.295-512.1 983.21-260.22-429.46-184.24-368.48-2.1191 0.25977-196.08 873.32 298.12 2.3613 344.63-74.525 189.52 37.543 257.08 161.83 67.56-1185.5z" fill="#3b0000" fill_rule="evenodd"/>
<path d="m5373.3 1935.1-260.73 171.87-237.75-157-780.24 93.717-0.1895 2.2109 737.23 220.38 778-221.86 0.1582-2.123z" fill="#3b0000" fill_rule="evenodd"/>
<path d="m5030.2 2563.7 4.0976 241.52-587.91 642.01 1160.3 305.33 1.2598-1.6816-570.47-943.96 785.91 47.691 323.43-199.17-0.5039-2.0957z" fill="#fff" fill_rule="evenodd"/>
<path d="m4831.8 2264-1.0899 1.754 200.05 300.3 1116 89.629 98.6-105.42-220.64-130.3zm-383.37 1180.8-730.84 1120.6 767.3 228.58 924.33-208.56-689.7-818.79z" fill="#d8d8d8" fill_rule="evenodd"/>
</g>
</svg>